2025-07-24 18:14:13,549 - INFO - Job d51dce2e-c187-4dde-b977-eb165778b38c initialized.
2025-07-24 18:14:13,550 - INFO - Original input file: Z:\landing_point\Video\The Good the Bad and the Ugly\The Good the Bad and the Ugly_t00.mkv
2025-07-24 18:14:13,563 - INFO - Final output file: Z:\landing_point\Video\The Good the Bad and the Ugly\The Good the Bad and the Ugly_t00_DV_P8.mkv
2025-07-24 18:14:13,564 - INFO - Local job staging directory: H:\staging\d51dce2e-c187-4dde-b977-eb165778b38c
2025-07-24 18:14:13,564 - INFO - Disk space for Local Staging SSD (H:\staging):
2025-07-24 18:14:13,565 - INFO -   - Total: 3726.01 GB
2025-07-24 18:14:13,566 - INFO -   - Used: 2154.76 GB
2025-07-24 18:14:13,566 - INFO -   - Free: 1571.25 GB
2025-07-24 18:14:13,567 - INFO - === Entering transcode() for job d51dce2e-c187-4dde-b977-eb165778b38c ===
2025-07-24 18:14:13,568 - INFO - Job dict: {
  "id": "d51dce2e-c187-4dde-b977-eb165778b38c",
  "input_path": "\"Z:\\landing_point\\Video\\The Good the Bad and the Ugly\\The Good the Bad and the Ugly_t00.mkv\"",
  "job_type": "standard",
  "status": "running",
  "worker_id": "CJBLANK",
  "output_path": null,
  "added_at": 1752956664.2147577,
  "retries": 1,
  "steps": {
    "copy_source": "pending",
    "get_metadata": "pending",
    "reencode_x265": "pending",
    "move_final": "pending"
  },
  "claimed_at": 1753402453.415084
}
2025-07-24 18:14:13,576 - INFO - === Starting transcode pipeline for job d51dce2e-c187-4dde-b977-eb165778b38c ===
2025-07-24 18:14:13,577 - INFO - Job dict: {'id': 'd51dce2e-c187-4dde-b977-eb165778b38c', 'input_path': '"Z:\\landing_point\\Video\\The Good the Bad and the Ugly\\The Good the Bad and the Ugly_t00.mkv"', 'job_type': 'standard', 'status': 'running', 'worker_id': 'CJBLANK', 'output_path': None, 'added_at': 1752956664.2147577, 'retries': 1, 'steps': {'copy_source': 'pending', 'get_metadata': 'pending', 'reencode_x265': 'pending', 'move_final': 'pending'}, 'claimed_at': 1753402453.415084}
2025-07-24 18:14:13,578 - INFO - Starting step: copy_source - Copying source file locally
2025-07-24 18:14:13,588 - INFO - Copying source file locally: from Z:\landing_point\Video\The Good the Bad and the Ugly\The Good the Bad and the Ugly_t00.mkv to H:\staging\d51dce2e-c187-4dde-b977-eb165778b38c\The Good the Bad and the Ugly_t00.mkv
2025-07-24 18:35:39,748 - INFO - Copy successful.
2025-07-24 18:35:39,818 - INFO - Starting step: get_metadata - Getting video metadata
2025-07-24 18:35:39,825 - INFO - Attempting to get video metadata from H:\staging\d51dce2e-c187-4dde-b977-eb165778b38c\The Good the Bad and the Ugly_t00.mkv
2025-07-24 18:35:40,031 - INFO - Successfully got frame rate: 23.976 fps.
2025-07-24 18:35:40,102 - INFO - Successfully got frame count from tag 'NUMBER_OF_FRAMES-eng': 232820 frames.
2025-07-24 18:35:48,379 - INFO - Starting step: reencode_x265 - Re-encoding and Muxing
2025-07-24 18:35:48,383 - INFO - Executing ffmpeg command: ffmpeg -fflags +genpts -i "H:\staging\d51dce2e-c187-4dde-b977-eb165778b38c\The Good the Bad and the Ugly_t00.mkv" -map 0 -c:v libx265 -preset medium -crf 18 -threads 10 -x265-params pools=10:no-sao=1:early-skip=1:rd=3:me=hex -c:a copy -c:s copy -y "H:\staging\d51dce2e-c187-4dde-b977-eb165778b38c\The Good the Bad and the Ugly_t00_x265.mkv"
2025-07-24 18:35:48,501 - ERROR - ffmpeg version 7.1.1-full_build-www.gyan.dev Copyright (c) 2000-2025 the FFmpeg developers
2025-07-24 18:35:48,502 - ERROR - built with gcc 14.2.0 (Rev1, Built by MSYS2 project)
2025-07-24 18:35:48,502 - ERROR - configuration: --enable-gpl --enable-version3 --enable-static --disable-w32threads --disable-autodetect --enable-fontconfig --enable-iconv --enable-gnutls --enable-lcms2 --enable-libxml2 --enable-gmp --enable-bzlib --enable-lzma --enable-libsnappy --enable-zlib --enable-librist --enable-libsrt --enable-libssh --enable-libzmq --enable-avisynth --enable-libbluray --enable-libcaca --enable-libdvdnav --enable-libdvdread --enable-sdl2 --enable-libaribb24 --enable-libaribcaption --enable-libdav1d --enable-libdavs2 --enable-libopenjpeg --enable-libquirc --enable-libuavs3d --enable-libxevd --enable-libzvbi --enable-libqrencode --enable-librav1e --enable-libsvtav1 --enable-libvvenc --enable-libwebp --enable-libx264 --enable-libx265 --enable-libxavs2 --enable-libxeve --enable-libxvid --enable-libaom --enable-libjxl --enable-libvpx --enable-mediafoundation --enable-libass --enable-frei0r --enable-libfreetype --enable-libfribidi --enable-libharfbuzz --enable-liblensfun --enable-libvidstab --enable-libvmaf --enable-libzimg --enable-amf --enable-cuda-llvm --enable-cuvid --enable-dxva2 --enable-d3d11va --enable-d3d12va --enable-ffnvcodec --enable-libvpl --enable-nvdec --enable-nvenc --enable-vaapi --enable-libshaderc --enable-vulkan --enable-libplacebo --enable-opencl --enable-libcdio --enable-libgme --enable-libmodplug --enable-libopenmpt --enable-libopencore-amrwb --enable-libmp3lame --enable-libshine --enable-libtheora --enable-libtwolame --enable-libvo-amrwbenc --enable-libcodec2 --enable-libilbc --enable-libgsm --enable-liblc3 --enable-libopencore-amrnb --enable-libopus --enable-libspeex --enable-libvorbis --enable-ladspa --enable-libbs2b --enable-libflite --enable-libmysofa --enable-librubberband --enable-libsoxr --enable-chromaprint
2025-07-24 18:35:48,503 - ERROR - libavutil      59. 39.100 / 59. 39.100
2025-07-24 18:35:48,504 - ERROR - libavcodec     61. 19.101 / 61. 19.101
2025-07-24 18:35:48,504 - ERROR - libavformat    61.  7.100 / 61.  7.100
2025-07-24 18:35:48,505 - ERROR - libavdevice    61.  3.100 / 61.  3.100
2025-07-24 18:35:48,505 - ERROR - libavfilter    10.  4.100 / 10.  4.100
2025-07-24 18:35:48,506 - ERROR - libswscale      8.  3.100 /  8.  3.100
2025-07-24 18:35:48,507 - ERROR - libswresample   5.  3.100 /  5.  3.100
2025-07-24 18:35:48,507 - ERROR - libpostproc    58.  3.100 / 58.  3.100
2025-07-24 18:35:48,508 - ERROR - [matroska,webm @ 00000211bbf77440] Could not find codec parameters for stream 7 (Subtitle: hdmv_pgs_subtitle (pgssub)): unspecified size
2025-07-24 18:35:48,508 - ERROR - Consider increasing the value for the 'analyzeduration' (0) and 'probesize' (5000000) options
2025-07-24 18:35:48,509 - ERROR - Input #0, matroska,webm, from 'H:\staging\d51dce2e-c187-4dde-b977-eb165778b38c\The Good the Bad and the Ugly_t00.mkv':
2025-07-24 18:35:48,509 - ERROR - Metadata:
2025-07-24 18:35:48,509 - ERROR - title           : The Good the Bad and the Ugly
2025-07-24 18:35:48,510 - ERROR - encoder         : libmakemkv v1.18.1 (1.3.10/1.5.2) win(x64-release)
2025-07-24 18:35:48,511 - ERROR - creation_time   : 2025-05-30T19:53:53.000000Z
2025-07-24 18:35:48,511 - ERROR - Duration: 02:41:50.54, start: 0.000000, bitrate: 69279 kb/s
2025-07-24 18:35:48,512 - ERROR - Chapters:
2025-07-24 18:35:48,512 - ERROR - Chapter #0:0: start 0.000000, end 442.567568
2025-07-24 18:35:48,513 - ERROR - Metadata:
2025-07-24 18:35:48,513 - ERROR - title           : Chapter 01
2025-07-24 18:35:48,514 - ERROR - Chapter #0:1: start 442.567568, end 1011.678345
2025-07-24 18:35:48,515 - ERROR - Metadata:
2025-07-24 18:35:48,515 - ERROR - title           : Chapter 02
2025-07-24 18:35:48,516 - ERROR - Chapter #0:2: start 1011.678345, end 1746.621622
2025-07-24 18:35:48,517 - ERROR - Metadata:
2025-07-24 18:35:48,517 - ERROR - title           : Chapter 03
2025-07-24 18:35:48,518 - ERROR - Chapter #0:3: start 1746.621622, end 2366.324658
2025-07-24 18:35:48,518 - ERROR - Metadata:
2025-07-24 18:35:48,519 - ERROR - title           : Chapter 04
2025-07-24 18:35:48,520 - ERROR - Chapter #0:4: start 2366.324658, end 3058.850517
2025-07-24 18:35:48,520 - ERROR - Metadata:
2025-07-24 18:35:48,521 - ERROR - title           : Chapter 05
2025-07-24 18:35:48,521 - ERROR - Chapter #0:5: start 3058.850517, end 3757.882883
2025-07-24 18:35:48,522 - ERROR - Metadata:
2025-07-24 18:35:48,523 - ERROR - title           : Chapter 06
2025-07-24 18:35:48,524 - ERROR - Chapter #0:6: start 3757.882883, end 4480.355355
2025-07-24 18:35:48,524 - ERROR - Metadata:
2025-07-24 18:35:48,525 - ERROR - title           : Chapter 07
2025-07-24 18:35:48,525 - ERROR - Chapter #0:7: start 4480.355355, end 5028.361695
2025-07-24 18:35:48,526 - ERROR - Metadata:
2025-07-24 18:35:48,527 - ERROR - title           : Chapter 08
2025-07-24 18:35:48,527 - ERROR - Chapter #0:8: start 5028.361695, end 5736.111111
2025-07-24 18:35:48,528 - ERROR - Metadata:
2025-07-24 18:35:48,529 - ERROR - title           : Chapter 09
2025-07-24 18:35:48,529 - ERROR - Chapter #0:9: start 5736.111111, end 6309.309309
2025-07-24 18:35:48,530 - ERROR - Metadata:
2025-07-24 18:35:48,531 - ERROR - title           : Chapter 10
2025-07-24 18:35:48,531 - ERROR - Chapter #0:10: start 6309.309309, end 6950.325325
2025-07-24 18:35:48,532 - ERROR - Metadata:
2025-07-24 18:35:48,532 - ERROR - title           : Chapter 11
2025-07-24 18:35:48,533 - ERROR - Chapter #0:11: start 6950.325325, end 7599.683016
2025-07-24 18:35:48,533 - ERROR - Metadata:
2025-07-24 18:35:48,534 - ERROR - title           : Chapter 12
2025-07-24 18:35:48,535 - ERROR - Chapter #0:12: start 7599.683016, end 8069.110777
2025-07-24 18:35:48,535 - ERROR - Metadata:
2025-07-24 18:35:48,536 - ERROR - title           : Chapter 13
2025-07-24 18:35:48,536 - ERROR - Chapter #0:13: start 8069.110777, end 8790.665666
2025-07-24 18:35:48,537 - ERROR - Metadata:
2025-07-24 18:35:48,537 - ERROR - title           : Chapter 14
2025-07-24 18:35:48,538 - ERROR - Chapter #0:14: start 8790.665666, end 9709.459459
2025-07-24 18:35:48,539 - ERROR - Metadata:
2025-07-24 18:35:48,539 - ERROR - title           : Chapter 15
2025-07-24 18:35:48,540 - ERROR - Chapter #0:15: start 9709.459459, end 9710.543877
2025-07-24 18:35:48,541 - ERROR - Metadata:
2025-07-24 18:35:48,541 - ERROR - title           : Chapter 16
2025-07-24 18:35:48,542 - ERROR - Stream #0:0(eng): Video: hevc (Main 10), yuv420p10le(tv, bt709), 3840x2160 [SAR 1:1 DAR 16:9], 23.98 fps, 23.98 tbr, 1k tbn
2025-07-24 18:35:48,542 - ERROR - Metadata:
2025-07-24 18:35:48,543 - ERROR - BPS-eng         : 59806115
2025-07-24 18:35:48,544 - ERROR - DURATION-eng    : 02:41:50.543877210
2025-07-24 18:35:48,544 - ERROR - NUMBER_OF_FRAMES-eng: 232820
2025-07-24 18:35:48,545 - ERROR - NUMBER_OF_BYTES-eng: 72593732446
2025-07-24 18:35:48,546 - ERROR - SOURCE_ID-eng   : 001011
2025-07-24 18:35:48,546 - ERROR - _STATISTICS_WRITING_APP-eng: MakeMKV v1.18.1 win(x64-release)
2025-07-24 18:35:48,547 - ERROR - _STATISTICS_WRITING_DATE_UTC-eng: 2025-05-30 19:53:53
2025-07-24 18:35:48,548 - ERROR - _STATISTICS_TAGS-eng: BPS DURATION NUMBER_OF_FRAMES NUMBER_OF_BYTES SOURCE_ID
2025-07-24 18:35:48,548 - ERROR - Stream #0:1(eng): Audio: dts (dca) (DTS-HD MA), 48000 Hz, 5.1(side), s16p (default)
2025-07-24 18:35:48,549 - ERROR - Metadata:
2025-07-24 18:35:48,549 - ERROR - title           : Surround 5.1
2025-07-24 18:35:48,550 - ERROR - BPS-eng         : 1807192
2025-07-24 18:35:48,550 - ERROR - DURATION-eng    : 02:41:50.560000000
2025-07-24 18:35:48,551 - ERROR - NUMBER_OF_FRAMES-eng: 910365
2025-07-24 18:35:48,551 - ERROR - NUMBER_OF_BYTES-eng: 2193606740
2025-07-24 18:35:48,552 - ERROR - SOURCE_ID-eng   : 001100
2025-07-24 18:35:48,552 - ERROR - _STATISTICS_WRITING_APP-eng: MakeMKV v1.18.1 win(x64-release)
2025-07-24 18:35:48,553 - ERROR - _STATISTICS_WRITING_DATE_UTC-eng: 2025-05-30 19:53:53
2025-07-24 18:35:48,553 - ERROR - _STATISTICS_TAGS-eng: BPS DURATION NUMBER_OF_FRAMES NUMBER_OF_BYTES SOURCE_ID
2025-07-24 18:35:48,554 - ERROR - Stream #0:2(eng): Audio: dts (dca) (DTS), 48000 Hz, 5.1(side), fltp, 1536 kb/s
2025-07-24 18:35:48,555 - ERROR - Metadata:
2025-07-24 18:35:48,555 - ERROR - title           : Surround 5.1
2025-07-24 18:35:48,556 - ERROR - BPS-eng         : 1509000
2025-07-24 18:35:48,557 - ERROR - DURATION-eng    : 02:41:50.560000000
2025-07-24 18:35:48,558 - ERROR - NUMBER_OF_FRAMES-eng: 910365
2025-07-24 18:35:48,558 - ERROR - NUMBER_OF_BYTES-eng: 1831654380
2025-07-24 18:35:48,559 - ERROR - SOURCE_ID-eng   : 001100
2025-07-24 18:35:48,559 - ERROR - _STATISTICS_WRITING_APP-eng: MakeMKV v1.18.1 win(x64-release)
2025-07-24 18:35:48,560 - ERROR - _STATISTICS_WRITING_DATE_UTC-eng: 2025-05-30 19:53:53
2025-07-24 18:35:48,561 - ERROR - _STATISTICS_TAGS-eng: BPS DURATION NUMBER_OF_FRAMES NUMBER_OF_BYTES SOURCE_ID
2025-07-24 18:35:48,562 - ERROR - Stream #0:3(eng): Audio: dts (dca) (DTS-HD MA), 48000 Hz, stereo, s16p
2025-07-24 18:35:48,562 - ERROR - Metadata:
2025-07-24 18:35:48,563 - ERROR - title           : Stereo
2025-07-24 18:35:48,564 - ERROR - BPS-eng         : 1560990
2025-07-24 18:35:48,564 - ERROR - DURATION-eng    : 02:41:50.560000000
2025-07-24 18:35:48,565 - ERROR - NUMBER_OF_FRAMES-eng: 910365
2025-07-24 18:35:48,565 - ERROR - NUMBER_OF_BYTES-eng: 1894761288
2025-07-24 18:35:48,566 - ERROR - SOURCE_ID-eng   : 001101
2025-07-24 18:35:48,567 - ERROR - _STATISTICS_WRITING_APP-eng: MakeMKV v1.18.1 win(x64-release)
2025-07-24 18:35:48,567 - ERROR - _STATISTICS_WRITING_DATE_UTC-eng: 2025-05-30 19:53:53
2025-07-24 18:35:48,568 - ERROR - _STATISTICS_TAGS-eng: BPS DURATION NUMBER_OF_FRAMES NUMBER_OF_BYTES SOURCE_ID
2025-07-24 18:35:48,568 - ERROR - Stream #0:4(eng): Audio: dts (dca) (DTS), 48000 Hz, stereo, fltp, 1536 kb/s
2025-07-24 18:35:48,569 - ERROR - Metadata:
2025-07-24 18:35:48,570 - ERROR - title           : Stereo
2025-07-24 18:35:48,570 - ERROR - BPS-eng         : 1509000
2025-07-24 18:35:48,571 - ERROR - DURATION-eng    : 02:41:50.560000000
2025-07-24 18:35:48,572 - ERROR - NUMBER_OF_FRAMES-eng: 910365
2025-07-24 18:35:48,572 - ERROR - NUMBER_OF_BYTES-eng: 1831654380
2025-07-24 18:35:48,573 - ERROR - SOURCE_ID-eng   : 001101
2025-07-24 18:35:48,573 - ERROR - _STATISTICS_WRITING_APP-eng: MakeMKV v1.18.1 win(x64-release)
2025-07-24 18:35:48,574 - ERROR - _STATISTICS_WRITING_DATE_UTC-eng: 2025-05-30 19:53:53
2025-07-24 18:35:48,575 - ERROR - _STATISTICS_TAGS-eng: BPS DURATION NUMBER_OF_FRAMES NUMBER_OF_BYTES SOURCE_ID
2025-07-24 18:35:48,575 - ERROR - Stream #0:5(eng): Audio: dts (dca) (DTS-HD MA), 48000 Hz, stereo, s16p
2025-07-24 18:35:48,576 - ERROR - Metadata:
2025-07-24 18:35:48,577 - ERROR - title           : Stereo
2025-07-24 18:35:48,577 - ERROR - BPS-eng         : 1557361
2025-07-24 18:35:48,578 - ERROR - DURATION-eng    : 02:41:50.560000000
2025-07-24 18:35:48,578 - ERROR - NUMBER_OF_FRAMES-eng: 910365
2025-07-24 18:35:48,579 - ERROR - NUMBER_OF_BYTES-eng: 1890356008
2025-07-24 18:35:48,580 - ERROR - SOURCE_ID-eng   : 001102
2025-07-24 18:35:48,580 - ERROR - _STATISTICS_WRITING_APP-eng: MakeMKV v1.18.1 win(x64-release)
2025-07-24 18:35:48,581 - ERROR - _STATISTICS_WRITING_DATE_UTC-eng: 2025-05-30 19:53:53
2025-07-24 18:35:48,581 - ERROR - _STATISTICS_TAGS-eng: BPS DURATION NUMBER_OF_FRAMES NUMBER_OF_BYTES SOURCE_ID
2025-07-24 18:35:48,582 - ERROR - Stream #0:6(eng): Audio: dts (dca) (DTS), 48000 Hz, stereo, fltp, 1536 kb/s
2025-07-24 18:35:48,582 - ERROR - Metadata:
2025-07-24 18:35:48,583 - ERROR - title           : Stereo
2025-07-24 18:35:48,584 - ERROR - BPS-eng         : 1509000
2025-07-24 18:35:48,584 - ERROR - DURATION-eng    : 02:41:50.560000000
2025-07-24 18:35:48,585 - ERROR - NUMBER_OF_FRAMES-eng: 910365
2025-07-24 18:35:48,585 - ERROR - NUMBER_OF_BYTES-eng: 1831654380
2025-07-24 18:35:48,586 - ERROR - SOURCE_ID-eng   : 001102
2025-07-24 18:35:48,586 - ERROR - _STATISTICS_WRITING_APP-eng: MakeMKV v1.18.1 win(x64-release)
2025-07-24 18:35:48,587 - ERROR - _STATISTICS_WRITING_DATE_UTC-eng: 2025-05-30 19:53:53
2025-07-24 18:35:48,588 - ERROR - _STATISTICS_TAGS-eng: BPS DURATION NUMBER_OF_FRAMES NUMBER_OF_BYTES SOURCE_ID
2025-07-24 18:35:48,588 - ERROR - Stream #0:7(eng): Subtitle: hdmv_pgs_subtitle (pgssub)
2025-07-24 18:35:48,589 - ERROR - Metadata:
2025-07-24 18:35:48,590 - ERROR - BPS-eng         : 14341
2025-07-24 18:35:48,590 - ERROR - DURATION-eng    : 02:29:52.054554553
2025-07-24 18:35:48,591 - ERROR - NUMBER_OF_FRAMES-eng: 1848
2025-07-24 18:35:48,592 - ERROR - NUMBER_OF_BYTES-eng: 16120299
2025-07-24 18:35:48,593 - ERROR - SOURCE_ID-eng   : 001200
2025-07-24 18:35:48,593 - ERROR - _STATISTICS_WRITING_APP-eng: MakeMKV v1.18.1 win(x64-release)
2025-07-24 18:35:48,594 - ERROR - _STATISTICS_WRITING_DATE_UTC-eng: 2025-05-30 19:53:53
2025-07-24 18:35:48,594 - ERROR - _STATISTICS_TAGS-eng: BPS DURATION NUMBER_OF_FRAMES NUMBER_OF_BYTES SOURCE_ID
2025-07-24 18:35:48,595 - ERROR - Stream mapping:
2025-07-24 18:35:48,596 - ERROR - Stream #0:0 -> #0:0 (hevc (native) -> hevc (libx265))
2025-07-24 18:35:48,596 - ERROR - Stream #0:1 -> #0:1 (copy)
2025-07-24 18:35:48,597 - ERROR - Stream #0:2 -> #0:2 (copy)
2025-07-24 18:35:48,597 - ERROR - Stream #0:3 -> #0:3 (copy)
2025-07-24 18:35:48,598 - ERROR - Stream #0:4 -> #0:4 (copy)
2025-07-24 18:35:48,599 - ERROR - Stream #0:5 -> #0:5 (copy)
2025-07-24 18:35:48,599 - ERROR - Stream #0:6 -> #0:6 (copy)
2025-07-24 18:35:48,600 - ERROR - Stream #0:7 -> #0:7 (copy)
2025-07-24 18:35:48,600 - ERROR - Press [q] to stop, [?] for help
2025-07-24 18:35:48,624 - ERROR - x265 [info]: HEVC encoder version 4.1+110-0e0eee580
2025-07-24 18:35:48,625 - ERROR - x265 [info]: build info [Windows][GCC 14.2.0][64 bit] 10bit
2025-07-24 18:35:48,626 - ERROR - x265 [info]: using cpu capabilities: MMX2 SSE2Fast LZCNT SSSE3 SSE4.2 AVX FMA3 BMI2 AVX2
2025-07-24 18:35:48,627 - ERROR - x265 [info]: Main 10 profile, Level-5 (Main tier)
2025-07-24 18:35:48,627 - ERROR - x265 [info]: Thread pool created using 10 threads
2025-07-24 18:35:48,628 - ERROR - x265 [info]: Slices                              : 1
2025-07-24 18:35:48,628 - ERROR - x265 [info]: frame threads / pool features       : 10 / wpp(34 rows)
2025-07-24 18:35:48,656 - ERROR - x265 [info]: Coding QT: max CU size, min CU size : 64 / 8
2025-07-24 18:35:48,657 - ERROR - x265 [info]: Residual QT: max TU size, max depth : 32 / 1 inter / 1 intra
2025-07-24 18:35:48,658 - ERROR - x265 [info]: ME / range / subpel / merge         : hex / 57 / 2 / 3
2025-07-24 18:35:48,659 - ERROR - x265 [info]: Keyframe min / max / scenecut / bias  : 23 / 250 / 40 / 5.00
2025-07-24 18:35:48,659 - ERROR - x265 [info]: Lookahead / bframes / badapt        : 20 / 4 / 2
2025-07-24 18:35:48,660 - ERROR - x265 [info]: b-pyramid / weightp / weightb       : 1 / 1 / 0
2025-07-24 18:35:48,661 - ERROR - x265 [info]: References / ref-limit  cu / depth  : 3 / off / on
2025-07-24 18:35:48,662 - ERROR - x265 [info]: AQ: mode / str / qg-size / cu-tree  : 2 / 1.0 / 32 / 1
2025-07-24 18:35:48,662 - ERROR - x265 [info]: Rate Control / qCompress            : CRF-18.0 / 0.60
2025-07-24 18:35:48,663 - ERROR - x265 [info]: tools: rd=3 psy-rd=2.00 early-skip rskip mode=1 signhide tmvp
2025-07-24 18:35:48,664 - ERROR - x265 [info]: tools: b-intra strong-intra-smoothing lslices=8 deblock
2025-07-24 18:35:48,664 - ERROR - x265 [info]: tools: dhdr10-info
2025-07-24 18:35:48,665 - ERROR - Output #0, matroska, to 'H:\staging\d51dce2e-c187-4dde-b977-eb165778b38c\The Good the Bad and the Ugly_t00_x265.mkv':
2025-07-24 18:35:48,665 - ERROR - Metadata:
2025-07-24 18:35:48,666 - ERROR - title           : The Good the Bad and the Ugly
2025-07-24 18:35:48,666 - ERROR - encoder         : Lavf61.7.100
2025-07-24 18:35:48,667 - ERROR - Chapters:
2025-07-24 18:35:48,667 - ERROR - Chapter #0:0: start 0.000000, end 442.567568
2025-07-24 18:35:48,668 - ERROR - Metadata:
2025-07-24 18:35:48,668 - ERROR - title           : Chapter 01
2025-07-24 18:35:48,669 - ERROR - Chapter #0:1: start 442.567568, end 1011.678345
2025-07-24 18:35:48,670 - ERROR - Metadata:
2025-07-24 18:35:48,671 - ERROR - title           : Chapter 02
2025-07-24 18:35:48,672 - ERROR - Chapter #0:2: start 1011.678345, end 1746.621622
2025-07-24 18:35:48,673 - ERROR - Metadata:
2025-07-24 18:35:48,673 - ERROR - title           : Chapter 03
2025-07-24 18:35:48,674 - ERROR - Chapter #0:3: start 1746.621622, end 2366.324658
2025-07-24 18:35:48,675 - ERROR - Metadata:
2025-07-24 18:35:48,675 - ERROR - title           : Chapter 04
2025-07-24 18:35:48,676 - ERROR - Chapter #0:4: start 2366.324658, end 3058.850517
2025-07-24 18:35:48,676 - ERROR - Metadata:
2025-07-24 18:35:48,677 - ERROR - title           : Chapter 05
2025-07-24 18:35:48,678 - ERROR - Chapter #0:5: start 3058.850517, end 3757.882883
2025-07-24 18:35:48,678 - ERROR - Metadata:
2025-07-24 18:35:48,679 - ERROR - title           : Chapter 06
2025-07-24 18:35:48,680 - ERROR - Chapter #0:6: start 3757.882883, end 4480.355355
2025-07-24 18:35:48,680 - ERROR - Metadata:
2025-07-24 18:35:48,681 - ERROR - title           : Chapter 07
2025-07-24 18:35:48,681 - ERROR - Chapter #0:7: start 4480.355355, end 5028.361695
2025-07-24 18:35:48,682 - ERROR - Metadata:
2025-07-24 18:35:48,683 - ERROR - title           : Chapter 08
2025-07-24 18:35:48,683 - ERROR - Chapter #0:8: start 5028.361695, end 5736.111111
2025-07-24 18:35:48,684 - ERROR - Metadata:
2025-07-24 18:35:48,685 - ERROR - title           : Chapter 09
2025-07-24 18:35:48,685 - ERROR - Chapter #0:9: start 5736.111111, end 6309.309309
2025-07-24 18:35:48,686 - ERROR - Metadata:
2025-07-24 18:35:48,686 - ERROR - title           : Chapter 10
2025-07-24 18:35:48,687 - ERROR - Chapter #0:10: start 6309.309309, end 6950.325325
2025-07-24 18:35:48,688 - ERROR - Metadata:
2025-07-24 18:35:48,688 - ERROR - title           : Chapter 11
2025-07-24 18:35:48,689 - ERROR - Chapter #0:11: start 6950.325325, end 7599.683016
2025-07-24 18:35:48,690 - ERROR - Metadata:
2025-07-24 18:35:48,690 - ERROR - title           : Chapter 12
2025-07-24 18:35:48,691 - ERROR - Chapter #0:12: start 7599.683016, end 8069.110777
2025-07-24 18:35:48,692 - ERROR - Metadata:
2025-07-24 18:35:48,692 - ERROR - title           : Chapter 13
2025-07-24 18:35:48,693 - ERROR - Chapter #0:13: start 8069.110777, end 8790.665666
2025-07-24 18:35:48,693 - ERROR - Metadata:
2025-07-24 18:35:48,694 - ERROR - title           : Chapter 14
2025-07-24 18:35:48,695 - ERROR - Chapter #0:14: start 8790.665666, end 9709.459459
2025-07-24 18:35:48,695 - ERROR - Metadata:
2025-07-24 18:35:48,696 - ERROR - title           : Chapter 15
2025-07-24 18:35:48,697 - ERROR - Chapter #0:15: start 9709.459459, end 9710.543877
2025-07-24 18:35:48,697 - ERROR - Metadata:
2025-07-24 18:35:48,698 - ERROR - title           : Chapter 16
2025-07-24 18:35:48,699 - ERROR - Stream #0:0(eng): Video: hevc, yuv420p10le(tv, bt709, progressive), 3840x2160 [SAR 1:1 DAR 16:9], q=2-31, 23.98 fps, 1k tbn
2025-07-24 18:35:48,699 - ERROR - Metadata:
2025-07-24 18:35:48,700 - ERROR - BPS-eng         : 59806115
2025-07-24 18:35:48,701 - ERROR - DURATION-eng    : 02:41:50.543877210
2025-07-24 18:35:48,701 - ERROR - NUMBER_OF_FRAMES-eng: 232820
2025-07-24 18:35:48,702 - ERROR - NUMBER_OF_BYTES-eng: 72593732446
2025-07-24 18:35:48,703 - ERROR - SOURCE_ID-eng   : 001011
2025-07-24 18:35:48,703 - ERROR - _STATISTICS_WRITING_APP-eng: MakeMKV v1.18.1 win(x64-release)
2025-07-24 18:35:48,704 - ERROR - _STATISTICS_WRITING_DATE_UTC-eng: 2025-05-30 19:53:53
2025-07-24 18:35:48,705 - ERROR - _STATISTICS_TAGS-eng: BPS DURATION NUMBER_OF_FRAMES NUMBER_OF_BYTES SOURCE_ID
2025-07-24 18:35:48,705 - ERROR - encoder         : Lavc61.19.101 libx265
2025-07-24 18:35:48,706 - ERROR - Side data:
2025-07-24 18:35:48,707 - ERROR - cpb: bitrate max/min/avg: 0/0/0 buffer size: 0 vbv_delay: N/A
2025-07-24 18:35:48,708 - ERROR - Stream #0:1(eng): Audio: dts (DTS-HD MA) ([1] [0][0] / 0x2001), 48000 Hz, 5.1(side), s16p (default)
2025-07-24 18:35:48,708 - ERROR - Metadata:
2025-07-24 18:35:48,709 - ERROR - title           : Surround 5.1
2025-07-24 18:35:48,709 - ERROR - BPS-eng         : 1807192
2025-07-24 18:35:48,710 - ERROR - DURATION-eng    : 02:41:50.560000000
2025-07-24 18:35:48,711 - ERROR - NUMBER_OF_FRAMES-eng: 910365
2025-07-24 18:35:48,711 - ERROR - NUMBER_OF_BYTES-eng: 2193606740
2025-07-24 18:35:48,712 - ERROR - SOURCE_ID-eng   : 001100
2025-07-24 18:35:48,712 - ERROR - _STATISTICS_WRITING_APP-eng: MakeMKV v1.18.1 win(x64-release)
2025-07-24 18:35:48,713 - ERROR - _STATISTICS_WRITING_DATE_UTC-eng: 2025-05-30 19:53:53
2025-07-24 18:35:48,714 - ERROR - _STATISTICS_TAGS-eng: BPS DURATION NUMBER_OF_FRAMES NUMBER_OF_BYTES SOURCE_ID
2025-07-24 18:35:48,714 - ERROR - Stream #0:2(eng): Audio: dts (DTS) ([1] [0][0] / 0x2001), 48000 Hz, 5.1(side), fltp, 1536 kb/s
2025-07-24 18:35:48,715 - ERROR - Metadata:
2025-07-24 18:35:48,716 - ERROR - title           : Surround 5.1
2025-07-24 18:35:48,717 - ERROR - BPS-eng         : 1509000
2025-07-24 18:35:48,717 - ERROR - DURATION-eng    : 02:41:50.560000000
2025-07-24 18:35:48,718 - ERROR - NUMBER_OF_FRAMES-eng: 910365
2025-07-24 18:35:48,719 - ERROR - NUMBER_OF_BYTES-eng: 1831654380
2025-07-24 18:35:48,719 - ERROR - SOURCE_ID-eng   : 001100
2025-07-24 18:35:48,720 - ERROR - _STATISTICS_WRITING_APP-eng: MakeMKV v1.18.1 win(x64-release)
2025-07-24 18:35:48,720 - ERROR - _STATISTICS_WRITING_DATE_UTC-eng: 2025-05-30 19:53:53
2025-07-24 18:35:48,721 - ERROR - _STATISTICS_TAGS-eng: BPS DURATION NUMBER_OF_FRAMES NUMBER_OF_BYTES SOURCE_ID
2025-07-24 18:35:48,723 - ERROR - Stream #0:3(eng): Audio: dts (DTS-HD MA) ([1] [0][0] / 0x2001), 48000 Hz, stereo, s16p
2025-07-24 18:35:48,723 - ERROR - Metadata:
2025-07-24 18:35:48,724 - ERROR - title           : Stereo
2025-07-24 18:35:48,725 - ERROR - BPS-eng         : 1560990
2025-07-24 18:35:48,725 - ERROR - DURATION-eng    : 02:41:50.560000000
2025-07-24 18:35:48,726 - ERROR - NUMBER_OF_FRAMES-eng: 910365
2025-07-24 18:35:48,726 - ERROR - NUMBER_OF_BYTES-eng: 1894761288
2025-07-24 18:35:48,727 - ERROR - SOURCE_ID-eng   : 001101
2025-07-24 18:35:48,728 - ERROR - _STATISTICS_WRITING_APP-eng: MakeMKV v1.18.1 win(x64-release)
2025-07-24 18:35:48,729 - ERROR - _STATISTICS_WRITING_DATE_UTC-eng: 2025-05-30 19:53:53
2025-07-24 18:35:48,729 - ERROR - _STATISTICS_TAGS-eng: BPS DURATION NUMBER_OF_FRAMES NUMBER_OF_BYTES SOURCE_ID
2025-07-24 18:35:48,731 - ERROR - Stream #0:4(eng): Audio: dts (DTS) ([1] [0][0] / 0x2001), 48000 Hz, stereo, fltp, 1536 kb/s
2025-07-24 18:35:48,732 - ERROR - Metadata:
2025-07-24 18:35:48,732 - ERROR - title           : Stereo
2025-07-24 18:35:48,733 - ERROR - BPS-eng         : 1509000
2025-07-24 18:35:48,734 - ERROR - DURATION-eng    : 02:41:50.560000000
2025-07-24 18:35:48,735 - ERROR - NUMBER_OF_FRAMES-eng: 910365
2025-07-24 18:35:48,735 - ERROR - NUMBER_OF_BYTES-eng: 1831654380
2025-07-24 18:35:48,736 - ERROR - SOURCE_ID-eng   : 001101
2025-07-24 18:35:48,737 - ERROR - _STATISTICS_WRITING_APP-eng: MakeMKV v1.18.1 win(x64-release)
2025-07-24 18:35:48,737 - ERROR - _STATISTICS_WRITING_DATE_UTC-eng: 2025-05-30 19:53:53
2025-07-24 18:35:48,738 - ERROR - _STATISTICS_TAGS-eng: BPS DURATION NUMBER_OF_FRAMES NUMBER_OF_BYTES SOURCE_ID
2025-07-24 18:35:48,739 - ERROR - Stream #0:5(eng): Audio: dts (DTS-HD MA) ([1] [0][0] / 0x2001), 48000 Hz, stereo, s16p
2025-07-24 18:35:48,740 - ERROR - Metadata:
2025-07-24 18:35:48,741 - ERROR - title           : Stereo
2025-07-24 18:35:48,741 - ERROR - BPS-eng         : 1557361
2025-07-24 18:35:48,742 - ERROR - DURATION-eng    : 02:41:50.560000000
2025-07-24 18:35:48,743 - ERROR - NUMBER_OF_FRAMES-eng: 910365
2025-07-24 18:35:48,743 - ERROR - NUMBER_OF_BYTES-eng: 1890356008
2025-07-24 18:35:48,744 - ERROR - SOURCE_ID-eng   : 001102
2025-07-24 18:35:48,744 - ERROR - _STATISTICS_WRITING_APP-eng: MakeMKV v1.18.1 win(x64-release)
2025-07-24 18:35:48,745 - ERROR - _STATISTICS_WRITING_DATE_UTC-eng: 2025-05-30 19:53:53
2025-07-24 18:35:48,746 - ERROR - _STATISTICS_TAGS-eng: BPS DURATION NUMBER_OF_FRAMES NUMBER_OF_BYTES SOURCE_ID
2025-07-24 18:35:48,746 - ERROR - Stream #0:6(eng): Audio: dts (DTS) ([1] [0][0] / 0x2001), 48000 Hz, stereo, fltp, 1536 kb/s
2025-07-24 18:35:48,747 - ERROR - Metadata:
2025-07-24 18:35:48,748 - ERROR - title           : Stereo
2025-07-24 18:35:48,749 - ERROR - BPS-eng         : 1509000
2025-07-24 18:35:48,749 - ERROR - DURATION-eng    : 02:41:50.560000000
2025-07-24 18:35:48,750 - ERROR - NUMBER_OF_FRAMES-eng: 910365
2025-07-24 18:35:48,750 - ERROR - NUMBER_OF_BYTES-eng: 1831654380
2025-07-24 18:35:48,751 - ERROR - SOURCE_ID-eng   : 001102
2025-07-24 18:35:48,752 - ERROR - _STATISTICS_WRITING_APP-eng: MakeMKV v1.18.1 win(x64-release)
2025-07-24 18:35:48,752 - ERROR - _STATISTICS_WRITING_DATE_UTC-eng: 2025-05-30 19:53:53
2025-07-24 18:35:48,753 - ERROR - _STATISTICS_TAGS-eng: BPS DURATION NUMBER_OF_FRAMES NUMBER_OF_BYTES SOURCE_ID
2025-07-24 18:35:48,754 - ERROR - Stream #0:7(eng): Subtitle: hdmv_pgs_subtitle ([255][255][255][255] / 0xFFFFFFFF)
2025-07-24 18:35:48,754 - ERROR - Metadata:
2025-07-24 18:35:48,755 - ERROR - BPS-eng         : 14341
2025-07-24 18:35:48,756 - ERROR - DURATION-eng    : 02:29:52.054554553
2025-07-24 18:35:48,756 - ERROR - NUMBER_OF_FRAMES-eng: 1848
2025-07-24 18:35:48,757 - ERROR - NUMBER_OF_BYTES-eng: 16120299
2025-07-24 18:35:48,757 - ERROR - SOURCE_ID-eng   : 001200
2025-07-24 18:35:48,758 - ERROR - _STATISTICS_WRITING_APP-eng: MakeMKV v1.18.1 win(x64-release)
2025-07-24 18:35:48,759 - ERROR - _STATISTICS_WRITING_DATE_UTC-eng: 2025-05-30 19:53:53
2025-07-24 18:35:48,759 - ERROR - _STATISTICS_TAGS-eng: BPS DURATION NUMBER_OF_FRAMES NUMBER_OF_BYTES SOURCE_ID
2025-07-25 06:32:54,298 - ERROR - [out#0/matroska @ 00000211bc5cb980] video:73596188KiB audio:11204773KiB subtitle:15742KiB other streams:0KiB global headers:2KiB muxing overhead: 0.046672%
2025-07-25 06:32:54,300 - ERROR - x265 [info]: frame I:   1719, Avg QP:18.72  kb/s: 88081.90
2025-07-25 06:32:54,302 - ERROR - x265 [info]: frame P:  49945, Avg QP:20.23  kb/s: 79718.77
2025-07-25 06:32:54,303 - ERROR - x265 [info]: frame B: 181156, Avg QP:23.40  kb/s: 56978.43
2025-07-25 06:32:54,304 - ERROR - x265 [info]: Weighted P-Frames: Y:1.0% UV:0.8%
2025-07-25 06:32:54,304 - ERROR - encoded 232820 frames in 43025.64s (5.41 fps), 62086.38 kb/s, Avg QP:22.69
2025-07-25 06:32:54,826 - INFO - Successfully completed: Re-encoding to x265
2025-07-25 06:32:54,889 - INFO - Starting step: move_final - Moving final file to destination
2025-07-25 06:32:54,896 - INFO - Moving final file from H:\staging\d51dce2e-c187-4dde-b977-eb165778b38c\The Good the Bad and the Ugly_t00_x265.mkv to Z:\landing_point\Video\The Good the Bad and the Ugly\The Good the Bad and the Ugly_t00_x265.mkv
2025-07-25 06:45:23,766 - INFO - Move successful.
2025-07-25 06:45:23,840 - INFO - === transcode() completed successfully for job d51dce2e-c187-4dde-b977-eb165778b38c ===
2025-07-25 06:45:23,930 - INFO - Cleaning up job staging directory: H:\staging\d51dce2e-c187-4dde-b977-eb165778b38c
